<svg id="Layer_1" height="512" viewBox="0 0 512 512" width="512" xmlns="http://www.w3.org/2000/svg" data-name="Layer 1"><path d="m143 149v-98c0-22.09 17.43-40 39.52-40h-30c-22.09 0-39.52 17.91-39.52 40v384.31a39.6 39.6 0 0 0 26.58 37.625 38.41 38.41 0 0 0 12.94 2.065h3.48v-8.79c0-.441.014-.879.033-1.315a39.656 39.656 0 0 1 -13.033-29.585z" fill="#d4e1f4"/><path d="m327.247 431h-141.5c-19.682 0-35.747 15.528-35.747 35.205v8.795h12v-8.8a23.667 23.667 0 0 1 19-23.148v31.948h12v-32h22v32h12v-32h23v32h12v-32h23v32h12v-32h22v32h12v-32.133c11 1.915 20 11.648 20 23.338v8.795h12v-8.8c0-19.672-16.076-35.2-35.753-35.2z" fill="#1ae5be"/><g fill="#0635c9"><path d="m359.483 5h-206.966a45.642 45.642 0 0 0 -45.517 46v384.314c0 18.487 10 34.451 26 41.755v23.931a6.219 6.219 0 0 0 6.25 6h38.234c3.314 0 5.516-2.687 5.516-6v-20h146v20c0 3.313 2.2 6 5.516 6h38.234a6.219 6.219 0 0 0 6.25-6v-23.931c16-7.3 26-23.268 26-41.755v-384.314a45.642 45.642 0 0 0 -45.517-46zm-188.483 490h-26v-14.265a52.563 52.563 0 0 0 7.517.265h18.483zm196 0h-26v-14h18.483a52.563 52.563 0 0 0 7.517-.265zm-7.517-26h-206.966a33.361 33.361 0 0 1 -33.517-33.686v-279.314h21v31.033a22 22 0 0 0 44 0v-31.033h209v279.314a33.361 33.361 0 0 1 -33.517 33.686zm-207.483-281.967v-74.033a10 10 0 0 1 20 0v74.035a10 10 0 0 1 -20 0zm241-43.033h-209v-31a22 22 0 0 0 -44 0v31h-21v-93a33.629 33.629 0 0 1 33.517-34h206.966a33.629 33.629 0 0 1 33.517 34z"/><path d="m378 102a10 10 0 0 0 -10-10h-64a10 10 0 0 0 -10 10v18a10 10 0 0 0 10 10h64a10 10 0 0 0 10-10zm-13 16h-59v-14h59z"/><path d="m136 238.106a6 6 0 0 0 -6 6v75.807a6 6 0 0 0 12 0v-75.807a6 6 0 0 0 -6-6z"/><path d="m136 212.892a6 6 0 0 0 -6 6v4.834a6 6 0 0 0 12 0v-4.834a6 6 0 0 0 -6-6z"/></g></svg>