<svg id="Capa_1" enable-background="new 0 0 512.08 512.08" height="512" viewBox="0 0 512.08 512.08" width="512" xmlns="http://www.w3.org/2000/svg"><g><path d="m435.166 225.832-17.839-38.588c-1.737-3.758-6.19-5.396-9.955-3.66-3.76 1.738-5.398 6.195-3.66 9.955l14.897 32.226h-194.151c-4.143 0-7.5 3.357-7.5 7.5s3.357 7.5 7.5 7.5h209.075c3.648 0 6.616 2.968 6.616 6.615v15.515c0 3.648-2.968 6.616-6.616 6.616h-269.991c-3.647 0-6.615-2.968-6.615-6.616v-15.515c0-3.647 2.968-6.615 6.615-6.615h28.954c4.143 0 7.5-3.357 7.5-7.5s-3.357-7.5-7.5-7.5h-14.03l36.48-78.913c1.545-3.342 4.922-5.501 8.604-5.501h149.977c3.682 0 7.059 2.159 8.604 5.501l8.167 17.667c1.737 3.758 6.191 5.398 9.955 3.66 3.76-1.738 5.398-6.195 3.66-9.955l-8.167-17.667c-3.989-8.63-12.711-14.206-22.219-14.206h-50.181c-3.632-70.285-61.942-126.351-133.112-126.351-73.504 0-133.304 59.8-133.304 133.304v244.915c0 4.143 3.357 7.5 7.5 7.5s7.5-3.357 7.5-7.5v-244.915c0-65.233 53.071-118.304 118.304-118.304 62.897 0 114.48 49.342 118.093 111.35h-20.038c-3.581-50.973-46.188-91.35-98.055-91.35-54.205 0-98.304 44.099-98.304 98.304v371.276c0 4.143 3.357 7.5 7.5 7.5s7.5-3.357 7.5-7.5v-371.276c0-45.934 37.37-83.304 83.304-83.304 43.59 0 79.443 33.66 82.991 76.35h-49.676c-9.508 0-18.229 5.576-22.219 14.206l-39.422 85.276c-11.158.838-19.983 10.178-19.983 21.547v15.515c0 11.919 9.696 21.616 21.615 21.616h269.992c11.919 0 21.616-9.697 21.616-21.616v-15.515c.002-11.369-8.823-20.709-19.982-21.547z"/><path d="m64.43 402.682c-4.143 0-7.5 3.357-7.5 7.5v94.398c0 4.143 3.357 7.5 7.5 7.5s7.5-3.357 7.5-7.5v-94.398c0-4.143-3.357-7.5-7.5-7.5z"/><path d="m190.234 315.366c-4.143 0-7.5 3.357-7.5 7.5v36.887c0 4.143 3.357 7.5 7.5 7.5s7.5-3.357 7.5-7.5v-36.887c0-4.142-3.358-7.5-7.5-7.5z"/><path d="m190.234 392.923c-4.143 0-7.5 3.357-7.5 7.5v104.157c0 4.143 3.357 7.5 7.5 7.5s7.5-3.357 7.5-7.5v-104.157c0-4.143-3.358-7.5-7.5-7.5z"/><path d="m249.862 352.253c-4.143 0-7.5 3.357-7.5 7.5v85.414c0 4.143 3.357 7.5 7.5 7.5s7.5-3.357 7.5-7.5v-85.414c0-4.143-3.358-7.5-7.5-7.5z"/><path d="m406.841 315.366c-4.143 0-7.5 3.357-7.5 7.5v36.887c0 4.143 3.357 7.5 7.5 7.5s7.5-3.357 7.5-7.5v-36.887c0-4.142-3.357-7.5-7.5-7.5z"/><path d="m406.841 392.923c-4.143 0-7.5 3.357-7.5 7.5v104.157c0 4.143 3.357 7.5 7.5 7.5s7.5-3.357 7.5-7.5v-104.157c0-4.143-3.357-7.5-7.5-7.5z"/><path d="m347.213 352.253c-4.143 0-7.5 3.357-7.5 7.5v85.414c0 4.143 3.357 7.5 7.5 7.5s7.5-3.357 7.5-7.5v-85.414c0-4.143-3.357-7.5-7.5-7.5z"/><path d="m298.538 310.638c-4.143 0-7.5 3.357-7.5 7.5v84.322c0 4.143 3.357 7.5 7.5 7.5s7.5-3.357 7.5-7.5v-84.322c0-4.143-3.358-7.5-7.5-7.5z"/><path d="m298.538 432.647c-4.143 0-7.5 3.357-7.5 7.5v64.433c0 4.143 3.357 7.5 7.5 7.5s7.5-3.357 7.5-7.5v-64.433c0-4.142-3.358-7.5-7.5-7.5z"/></g></svg>